<svg width="16" height="16" viewBox="0 0 16 16" fill="none" xmlns="http://www.w3.org/2000/svg">
<g id="linkedin 1" clip-path="url(#clip0_624891_1368)">
<path id="Vector" d="M15.996 16V15.9993H16V10.1313C16 7.26065 15.382 5.04932 12.026 5.04932C10.4126 5.04932 9.32997 5.93465 8.88797 6.77398H8.8413V5.31732H5.6593V15.9993H8.97264V10.71C8.97264 9.31732 9.23664 7.97065 10.9613 7.97065C12.6606 7.97065 12.686 9.55998 12.686 10.7993V16H15.996Z" fill="#F4F4FD"/>
<path id="Vector_2" d="M0.264038 5.31793H3.58137V15.9999H0.264038V5.31793Z" fill="#F4F4FD"/>
<path id="Vector_3" d="M1.92133 -6.10352e-05C0.860667 -6.10352e-05 0 0.860606 0 1.92127C0 2.98194 0.860667 3.86061 1.92133 3.86061C2.982 3.86061 3.84267 2.98194 3.84267 1.92127C3.842 0.860606 2.98133 -6.10352e-05 1.92133 -6.10352e-05V-6.10352e-05Z" fill="#F4F4FD"/>
</g>
<defs>
<clipPath id="clip0_624891_1368">
<rect width="16" height="16" fill="white"/>
</clipPath>
</defs>
</svg>
